<svg width="138" height="115" viewBox="0 0 138 115" fill="none" xmlns="http://www.w3.org/2000/svg">
<path d="M102.75 31.75H68.4425L64.7625 25.8625C63.9796 24.6007 62.8867 23.5603 61.5878 22.8404C60.289 22.1206 58.8275 21.7452 57.3425 21.75H35.25C33.593 21.752 32.0044 22.4111 30.8328 23.5828C29.6611 24.7545 29.002 26.3431 29 28L29 78C29.002 79.657 29.6611 81.2456 30.8328 82.4173C32.0044 83.5889 33.593 84.2481 35.25 84.25H102.75C104.407 84.2481 105.996 83.5889 107.167 82.4173C108.339 81.2456 108.998 79.657 109 78V38C108.998 36.3431 108.339 34.7545 107.167 33.5828C105.996 32.4111 104.407 31.752 102.75 31.75Z" fill="white"/>
<path d="M89 54.2501H49C48.3096 54.2501 47.75 54.8097 47.75 55.5001V61.7501C47.75 62.4404 48.3096 63.0001 49 63.0001H89C89.6904 63.0001 90.25 62.4404 90.25 61.7501V55.5001C90.25 54.8097 89.6904 54.2501 89 54.2501Z" fill="#7763A5"/>
<path d="M89 70.5001H49C48.3096 70.5001 47.75 71.0597 47.75 71.7501V78.0001C47.75 78.6904 48.3096 79.2501 49 79.2501H89C89.6904 79.2501 90.25 78.6904 90.25 78.0001V71.7501C90.25 71.0597 89.6904 70.5001 89 70.5001Z" fill="#7763A5"/>
<path d="M89 86.75H79C78.7864 86.7488 78.576 86.8024 78.389 86.9057C78.202 87.009 78.0445 87.1584 77.9317 87.3398C77.8189 87.5212 77.7544 87.7285 77.7445 87.9419C77.7346 88.1553 77.7795 88.3677 77.875 88.5588L80.375 93.5588C80.4793 93.7675 80.64 93.9429 80.8388 94.0651C81.0376 94.1872 81.2667 94.2513 81.5 94.25H89C89.3315 94.25 89.6495 94.1183 89.8839 93.8839C90.1183 93.6495 90.25 93.3315 90.25 93V88C90.25 87.6685 90.1183 87.3506 89.8839 87.1161C89.6495 86.8817 89.3315 86.75 89 86.75ZM59 86.75H49C48.6685 86.75 48.3505 86.8817 48.1161 87.1161C47.8817 87.3506 47.75 87.6685 47.75 88V93C47.75 93.3315 47.8817 93.6495 48.1161 93.8839C48.3505 94.1183 48.6685 94.25 49 94.25H56.5C56.7323 94.2501 56.96 94.1855 57.1576 94.0634C57.3552 93.9413 57.5149 93.7666 57.6188 93.5588L60.1188 88.5588C60.214 88.3681 60.2589 88.1563 60.2493 87.9435C60.2397 87.7306 60.1758 87.5237 60.0637 87.3425C59.9516 87.1612 59.795 87.0117 59.6088 86.908C59.4227 86.8043 59.2131 86.7499 59 86.75Z" fill="#7763A5"/>
<path d="M91.5 44.25H46.5C45.1193 44.25 44 45.3693 44 46.75V54.25C44 55.6307 45.1193 56.75 46.5 56.75H91.5C92.8807 56.75 94 55.6307 94 54.25V46.75C94 45.3693 92.8807 44.25 91.5 44.25Z" fill="#B8A8DC"/>
<path d="M91.5 60.5001H46.5C45.1193 60.5001 44 61.6193 44 63.0001V70.5001C44 71.8808 45.1193 73.0001 46.5 73.0001H91.5C92.8807 73.0001 94 71.8808 94 70.5001V63.0001C94 61.6193 92.8807 60.5001 91.5 60.5001Z" fill="#B8A8DC"/>
<path d="M91.5 76.7501H46.5C45.1193 76.7501 44 77.8693 44 79.2501V86.7501C44 88.1308 45.1193 89.2501 46.5 89.2501H91.5C92.8807 89.2501 94 88.1308 94 86.7501V79.2501C94 77.8693 92.8807 76.7501 91.5 76.7501Z" fill="#B8A8DC"/>
<path d="M54 51.75C54.6904 51.75 55.25 51.1904 55.25 50.5C55.25 49.8096 54.6904 49.25 54 49.25C53.3096 49.25 52.75 49.8096 52.75 50.5C52.75 51.1904 53.3096 51.75 54 51.75Z" fill="#7763A5"/>
<path d="M50.25 51.75C50.9404 51.75 51.5 51.1904 51.5 50.5C51.5 49.8096 50.9404 49.25 50.25 49.25C49.5596 49.25 49 49.8096 49 50.5C49 51.1904 49.5596 51.75 50.25 51.75Z" fill="#7763A5"/>
<path d="M57.75 51.75C58.4404 51.75 59 51.1904 59 50.5C59 49.8096 58.4404 49.25 57.75 49.25C57.0596 49.25 56.5 49.8096 56.5 50.5C56.5 51.1904 57.0596 51.75 57.75 51.75Z" fill="#7763A5"/>
<path d="M87.75 51.75H65.25C64.9185 51.75 64.6005 51.6183 64.3661 51.3839C64.1317 51.1495 64 50.8315 64 50.5C64 50.1685 64.1317 49.8505 64.3661 49.6161C64.6005 49.3817 64.9185 49.25 65.25 49.25H87.75C88.0815 49.25 88.3995 49.3817 88.6339 49.6161C88.8683 49.8505 89 50.1685 89 50.5C89 50.8315 88.8683 51.1495 88.6339 51.3839C88.3995 51.6183 88.0815 51.75 87.75 51.75Z" fill="#7763A5"/>
<path d="M54 68C54.6904 68 55.25 67.4404 55.25 66.75C55.25 66.0596 54.6904 65.5 54 65.5C53.3096 65.5 52.75 66.0596 52.75 66.75C52.75 67.4404 53.3096 68 54 68Z" fill="#7763A5"/>
<path d="M50.25 68C50.9404 68 51.5 67.4404 51.5 66.75C51.5 66.0596 50.9404 65.5 50.25 65.5C49.5596 65.5 49 66.0596 49 66.75C49 67.4404 49.5596 68 50.25 68Z" fill="#7763A5"/>
<path d="M57.75 68C58.4404 68 59 67.4404 59 66.75C59 66.0596 58.4404 65.5 57.75 65.5C57.0596 65.5 56.5 66.0596 56.5 66.75C56.5 67.4404 57.0596 68 57.75 68Z" fill="#7763A5"/>
<path d="M87.75 68H65.25C64.9185 68 64.6005 67.8683 64.3661 67.6339C64.1317 67.3995 64 67.0815 64 66.75C64 66.4185 64.1317 66.1005 64.3661 65.8661C64.6005 65.6317 64.9185 65.5 65.25 65.5H87.75C88.0815 65.5 88.3995 65.6317 88.6339 65.8661C88.8683 66.1005 89 66.4185 89 66.75C89 67.0815 88.8683 67.3995 88.6339 67.6339C88.3995 67.8683 88.0815 68 87.75 68Z" fill="#7763A5"/>
<path d="M54 84.25C54.6904 84.25 55.25 83.6904 55.25 83C55.25 82.3096 54.6904 81.75 54 81.75C53.3096 81.75 52.75 82.3096 52.75 83C52.75 83.6904 53.3096 84.25 54 84.25Z" fill="#7763A5"/>
<path d="M50.25 84.25C50.9404 84.25 51.5 83.6904 51.5 83C51.5 82.3096 50.9404 81.75 50.25 81.75C49.5596 81.75 49 82.3096 49 83C49 83.6904 49.5596 84.25 50.25 84.25Z" fill="#7763A5"/>
<path d="M57.75 84.25C58.4404 84.25 59 83.6904 59 83C59 82.3096 58.4404 81.75 57.75 81.75C57.0596 81.75 56.5 82.3096 56.5 83C56.5 83.6904 57.0596 84.25 57.75 84.25Z" fill="#7763A5"/>
<path d="M87.75 84.25H65.25C64.9185 84.25 64.6005 84.1183 64.3661 83.8839C64.1317 83.6495 64 83.3315 64 83C64 82.6685 64.1317 82.3505 64.3661 82.1161C64.6005 81.8817 64.9185 81.75 65.25 81.75H87.75C88.0815 81.75 88.3995 81.8817 88.6339 82.1161C88.8683 82.3505 89 82.6685 89 83C89 83.3315 88.8683 83.6495 88.6339 83.8839C88.3995 84.1183 88.0815 84.25 87.75 84.25Z" fill="#7763A5"/>
<path d="M22.4608 107.814V107.812H22.4264H22.4194H22.4133H18.8822V107.81C18.8711 107.81 18.86 107.811 18.8488 107.812H18.8256C16.8726 107.805 15.2904 106.228 15.2621 104.272L15.2611 97.0296V71.8723V62.6549L10.1256 57.4995L15.2611 52.3431V37.4682V19.0059V10.7104C15.2985 8.76307 16.8767 7.19505 18.8236 7.18795H18.8468C18.8579 7.18896 18.869 7.18998 18.8812 7.19099V7.18795H22.4113H22.4184H22.4244H22.4588V7.18592C24.4178 7.16361 25.998 5.56516 25.998 3.59448V3.59347C25.998 1.62279 24.4178 0.0243454 22.4588 0.00203705V0.00101471H22.4487C22.4386 0.00101471 22.4285 0 22.4184 0C22.4072 0 22.3982 0.00101471 22.387 0.00101471H15.3005V0.00203705C15.2864 0.00203705 15.2733 0.00101471 15.2601 0.00101471C11.3057 0.00101471 8.10088 3.2182 8.09987 7.18694V19.0059V24.498V33.895V37.4682V49.3673L0 57.4995L8.09987 65.6297V71.8723V82.176V92.9169V97.0296V107.813H8.10189C8.1029 111.782 11.3077 114.999 15.2621 114.999C15.2753 114.999 15.2884 114.998 15.3015 114.998L22.3891 114.999C22.3992 114.999 22.4093 115 22.4194 115C22.4305 115 22.4396 114.999 22.4507 114.999H22.4608C24.4188 114.978 26 113.377 26 111.407C26 109.436 24.4188 107.835 22.4608 107.814Z" fill="#191A42"/>
<path d="M115.539 107.814V107.812H115.574H115.581H115.587H119.118V107.81C119.129 107.81 119.14 107.811 119.151 107.812H119.174C121.127 107.805 122.71 106.228 122.738 104.272L122.739 97.0296V71.8723V62.6549L127.874 57.4995L122.739 52.3431V37.4682V19.0059V10.7104C122.701 8.76307 121.123 7.19505 119.176 7.18795H119.153C119.142 7.18896 119.131 7.18998 119.119 7.19099V7.18795H115.589H115.582H115.576H115.541V7.18592C113.582 7.16361 112.002 5.56516 112.002 3.59448V3.59347C112.002 1.62279 113.582 0.0243454 115.541 0.00203705V0.00101471H115.551C115.561 0.00101471 115.572 0 115.582 0C115.593 0 115.602 0.00101471 115.613 0.00101471H122.699V0.00203705C122.714 0.00203705 122.727 0.00101471 122.74 0.00101471C126.694 0.00101471 129.899 3.2182 129.9 7.18694V19.0059V24.498V33.895V37.4682V49.3673L138 57.4995L129.9 65.6297V71.8723V82.176V92.9169V97.0296V107.813H129.898C129.897 111.782 126.692 114.999 122.738 114.999C122.725 114.999 122.712 114.998 122.698 114.998L115.611 114.999C115.601 114.999 115.591 115 115.581 115C115.57 115 115.56 114.999 115.549 114.999H115.539C113.581 114.978 112 113.377 112 111.407C112 109.436 113.581 107.835 115.539 107.814Z" fill="#191A42"/>
</svg>
