<svg width="138" height="115" viewBox="0 0 138 115" fill="none" xmlns="http://www.w3.org/2000/svg">
<path d="M22.4608 107.814V107.812H22.4264H22.4194H22.4133H18.8822V107.81C18.8711 107.81 18.86 107.811 18.8488 107.812H18.8256C16.8726 107.805 15.2904 106.228 15.2621 104.272L15.2611 97.0296V71.8723V62.6549L10.1256 57.4995L15.2611 52.3431V37.4682V19.0059V10.7104C15.2985 8.76307 16.8767 7.19505 18.8236 7.18795H18.8468C18.8579 7.18896 18.869 7.18998 18.8812 7.19099V7.18795H22.4113H22.4184H22.4244H22.4588V7.18592C24.4178 7.16361 25.998 5.56516 25.998 3.59448V3.59347C25.998 1.62279 24.4178 0.0243454 22.4588 0.00203705V0.00101471H22.4487C22.4386 0.00101471 22.4285 0 22.4184 0C22.4072 0 22.3982 0.00101471 22.387 0.00101471H15.3005V0.00203705C15.2864 0.00203705 15.2733 0.00101471 15.2601 0.00101471C11.3057 0.00101471 8.10088 3.2182 8.09987 7.18694V19.0059V24.498V33.895V37.4682V49.3673L0 57.4995L8.09987 65.6297V71.8723V82.176V92.9169V97.0296V107.813H8.10189C8.1029 111.782 11.3077 114.999 15.2621 114.999C15.2753 114.999 15.2884 114.998 15.3015 114.998L22.3891 114.999C22.3992 114.999 22.4093 115 22.4194 115C22.4305 115 22.4396 114.999 22.4507 114.999H22.4608C24.4188 114.978 26 113.377 26 111.407C26 109.436 24.4188 107.835 22.4608 107.814Z" fill="#191A42"/>
<path d="M115.539 107.814V107.812H115.574H115.581H115.587H119.118V107.81C119.129 107.81 119.14 107.811 119.151 107.812H119.174C121.127 107.805 122.71 106.228 122.738 104.272L122.739 97.0296V71.8723V62.6549L127.874 57.4995L122.739 52.3431V37.4682V19.0059V10.7104C122.701 8.76307 121.123 7.19505 119.176 7.18795H119.153C119.142 7.18896 119.131 7.18998 119.119 7.19099V7.18795H115.589H115.582H115.576H115.541V7.18592C113.582 7.16361 112.002 5.56516 112.002 3.59448V3.59347C112.002 1.62279 113.582 0.0243454 115.541 0.00203705V0.00101471H115.551C115.561 0.00101471 115.572 0 115.582 0C115.593 0 115.602 0.00101471 115.613 0.00101471H122.699V0.00203705C122.714 0.00203705 122.727 0.00101471 122.74 0.00101471C126.694 0.00101471 129.899 3.2182 129.9 7.18694V19.0059V24.498V33.895V37.4682V49.3673L138 57.4995L129.9 65.6297V71.8723V82.176V92.9169V97.0296V107.813H129.898C129.897 111.782 126.692 114.999 122.738 114.999C122.725 114.999 122.712 114.998 122.698 114.998L115.611 114.999C115.601 114.999 115.591 115 115.581 115C115.57 115 115.56 114.999 115.549 114.999H115.539C113.581 114.978 112 113.377 112 111.407C112 109.436 113.581 107.835 115.539 107.814Z" fill="#191A42"/>
<g clip-path="url(#clip0_1_971)">
<path d="M107.045 77.2775L96.5587 66.7912C96.4031 66.6355 96.209 66.5236 95.9962 66.467C95.7835 66.4104 95.5595 66.4109 95.347 66.4686C95.1345 66.5264 94.941 66.6392 94.7861 66.7957C94.6312 66.9522 94.5205 67.1469 94.465 67.36C93.7389 70.1523 92.2804 72.7001 90.2403 74.7403C88.2001 76.7804 85.6523 78.2389 82.86 78.965C82.6469 79.0205 82.4522 79.1312 82.2957 79.2861C82.1392 79.441 82.0264 79.6345 81.9686 79.847C81.9109 80.0595 81.9104 80.2835 81.967 80.4962C82.0236 80.709 82.1355 80.9031 82.2912 81.0587L92.7775 91.545C93.7128 92.4888 94.8253 93.2386 96.0511 93.7512C97.277 94.2639 98.592 94.5293 99.9207 94.5324C101.249 94.5354 102.566 94.2759 103.794 93.7688C105.022 93.2617 106.138 92.517 107.077 91.5774C108.017 90.6379 108.762 89.522 109.269 88.2938C109.776 87.0657 110.035 85.7494 110.032 84.4207C110.029 83.092 109.764 81.777 109.251 80.5511C108.739 79.3253 107.989 78.2128 107.045 77.2775Z" fill="#EA4680"/>
<path d="M82.5 50.75H37.5C36.8096 50.75 36.25 51.3096 36.25 52V58.25C36.25 58.9404 36.8096 59.5 37.5 59.5H82.5C83.1904 59.5 83.75 58.9404 83.75 58.25V52C83.75 51.3096 83.1904 50.75 82.5 50.75Z" fill="#EFC3D4"/>
<path d="M82.5 32H37.5C36.8096 32 36.25 32.5596 36.25 33.25V39.5C36.25 40.1904 36.8096 40.75 37.5 40.75H82.5C83.1904 40.75 83.75 40.1904 83.75 39.5V33.25C83.75 32.5596 83.1904 32 82.5 32Z" fill="#EFC3D4"/>
<path d="M86.25 57H33.75C31.6789 57 30 58.6789 30 60.75V68.25C30 70.3211 31.6789 72 33.75 72H86.25C88.3211 72 90 70.3211 90 68.25V60.75C90 58.6789 88.3211 57 86.25 57Z" fill="white"/>
<path d="M86.25 38.25H33.75C31.6789 38.25 30 39.9289 30 42V49.5C30 51.5711 31.6789 53.25 33.75 53.25H86.25C88.3211 53.25 90 51.5711 90 49.5V42C90 39.9289 88.3211 38.25 86.25 38.25Z" fill="white"/>
<path d="M86.25 19.5H33.75C31.6789 19.5 30 21.1789 30 23.25V30.75C30 32.8211 31.6789 34.5 33.75 34.5H86.25C88.3211 34.5 90 32.8211 90 30.75V23.25C90 21.1789 88.3211 19.5 86.25 19.5Z" fill="white"/>
<path d="M40 65.75C40.6904 65.75 41.25 65.1904 41.25 64.5C41.25 63.8096 40.6904 63.25 40 63.25C39.3096 63.25 38.75 63.8096 38.75 64.5C38.75 65.1904 39.3096 65.75 40 65.75Z" fill="#EFC3D4"/>
<path d="M36.25 65.75C36.9404 65.75 37.5 65.1904 37.5 64.5C37.5 63.8096 36.9404 63.25 36.25 63.25C35.5596 63.25 35 63.8096 35 64.5C35 65.1904 35.5596 65.75 36.25 65.75Z" fill="#EFC3D4"/>
<path d="M43.75 65.75C44.4404 65.75 45 65.1904 45 64.5C45 63.8096 44.4404 63.25 43.75 63.25C43.0596 63.25 42.5 63.8096 42.5 64.5C42.5 65.1904 43.0596 65.75 43.75 65.75Z" fill="#EFC3D4"/>
<path d="M83.75 65.75H56.25C55.9185 65.75 55.6005 65.6183 55.3661 65.3839C55.1317 65.1495 55 64.8315 55 64.5C55 64.1685 55.1317 63.8505 55.3661 63.6161C55.6005 63.3817 55.9185 63.25 56.25 63.25H83.75C84.0815 63.25 84.3995 63.3817 84.6339 63.6161C84.8683 63.8505 85 64.1685 85 64.5C85 64.8315 84.8683 65.1495 84.6339 65.3839C84.3995 65.6183 84.0815 65.75 83.75 65.75Z" fill="#EFC3D4"/>
<path d="M40 47C40.6904 47 41.25 46.4404 41.25 45.75C41.25 45.0596 40.6904 44.5 40 44.5C39.3096 44.5 38.75 45.0596 38.75 45.75C38.75 46.4404 39.3096 47 40 47Z" fill="#EFC3D4"/>
<path d="M36.25 47C36.9404 47 37.5 46.4404 37.5 45.75C37.5 45.0596 36.9404 44.5 36.25 44.5C35.5596 44.5 35 45.0596 35 45.75C35 46.4404 35.5596 47 36.25 47Z" fill="#EFC3D4"/>
<path d="M43.75 47C44.4404 47 45 46.4404 45 45.75C45 45.0596 44.4404 44.5 43.75 44.5C43.0596 44.5 42.5 45.0596 42.5 45.75C42.5 46.4404 43.0596 47 43.75 47Z" fill="#EFC3D4"/>
<path d="M83.75 47H56.25C55.9185 47 55.6005 46.8683 55.3661 46.6339C55.1317 46.3995 55 46.0815 55 45.75C55 45.4185 55.1317 45.1005 55.3661 44.8661C55.6005 44.6317 55.9185 44.5 56.25 44.5H83.75C84.0815 44.5 84.3995 44.6317 84.6339 44.8661C84.8683 45.1005 85 45.4185 85 45.75C85 46.0815 84.8683 46.3995 84.6339 46.6339C84.3995 46.8683 84.0815 47 83.75 47Z" fill="#EFC3D4"/>
<path d="M40 28.25C40.6904 28.25 41.25 27.6904 41.25 27C41.25 26.3096 40.6904 25.75 40 25.75C39.3096 25.75 38.75 26.3096 38.75 27C38.75 27.6904 39.3096 28.25 40 28.25Z" fill="#EFC3D4"/>
<path d="M36.25 28.25C36.9404 28.25 37.5 27.6904 37.5 27C37.5 26.3096 36.9404 25.75 36.25 25.75C35.5596 25.75 35 26.3096 35 27C35 27.6904 35.5596 28.25 36.25 28.25Z" fill="#EFC3D4"/>
<path d="M43.75 28.25C44.4404 28.25 45 27.6904 45 27C45 26.3096 44.4404 25.75 43.75 25.75C43.0596 25.75 42.5 26.3096 42.5 27C42.5 27.6904 43.0596 28.25 43.75 28.25Z" fill="#EFC3D4"/>
<path d="M83.75 28.25H56.25C55.9185 28.25 55.6005 28.1183 55.3661 27.8839C55.1317 27.6495 55 27.3315 55 27C55 26.6685 55.1317 26.3505 55.3661 26.1161C55.6005 25.8817 55.9185 25.75 56.25 25.75H83.75C84.0815 25.75 84.3995 25.8817 84.6339 26.1161C84.8683 26.3505 85 26.6685 85 27C85 27.3315 84.8683 27.6495 84.6339 27.8839C84.3995 28.1183 84.0815 28.25 83.75 28.25Z" fill="#EFC3D4"/>
<path d="M78.75 82C89.1053 82 97.5 73.6053 97.5 63.25C97.5 52.8947 89.1053 44.5 78.75 44.5C68.3947 44.5 60 52.8947 60 63.25C60 73.6053 68.3947 82 78.75 82Z" fill="#FF70A3"/>
<path d="M78.75 77C86.3439 77 92.5 70.8439 92.5 63.25C92.5 55.6561 86.3439 49.5 78.75 49.5C71.1561 49.5 65 55.6561 65 63.25C65 70.8439 71.1561 77 78.75 77Z" fill="#EA4680"/>
<path d="M70 64.5C69.6685 64.5 69.3505 64.3683 69.1161 64.1339C68.8817 63.8995 68.75 63.5815 68.75 63.25C68.753 60.5987 69.8075 58.0569 71.6822 56.1822C73.5569 54.3075 76.0987 53.253 78.75 53.25C79.0815 53.25 79.3995 53.3817 79.6339 53.6161C79.8683 53.8505 80 54.1685 80 54.5C80 54.8315 79.8683 55.1495 79.6339 55.3839C79.3995 55.6183 79.0815 55.75 78.75 55.75C76.7615 55.752 74.855 56.5428 73.4489 57.9489C72.0428 59.355 71.252 61.2615 71.25 63.25C71.25 63.5815 71.1183 63.8995 70.8839 64.1339C70.6495 64.3683 70.3315 64.5 70 64.5ZM110 84.4113C110.004 83.0859 109.744 81.7729 109.237 80.5484C108.73 79.3239 107.985 78.2122 107.045 77.2775L106.25 76.4825L91.9825 90.75L92.7775 91.545C94.1884 92.9559 95.9861 93.9167 97.9431 94.306C99.9001 94.6953 101.929 94.4955 103.772 93.7319C105.615 92.9683 107.191 91.6752 108.3 90.0162C109.408 88.3571 110 86.4066 110 84.4113Z" fill="#D22E68"/>
</g>
<defs>
<clipPath id="clip0_1_971">
<rect width="80" height="80" fill="white" transform="translate(30 17)"/>
</clipPath>
</defs>
</svg>
