<svg width="138" height="115" viewBox="0 0 138 115" fill="none" xmlns="http://www.w3.org/2000/svg">
<path d="M22.4608 107.814V107.812H22.4264H22.4194H22.4133H18.8822V107.81C18.8711 107.81 18.86 107.811 18.8488 107.812H18.8256C16.8726 107.805 15.2904 106.228 15.2621 104.272L15.2611 97.0296V71.8723V62.6549L10.1256 57.4995L15.2611 52.3431V37.4682V19.0059V10.7104C15.2985 8.76307 16.8767 7.19505 18.8236 7.18795H18.8468C18.8579 7.18896 18.869 7.18998 18.8812 7.19099V7.18795H22.4113H22.4184H22.4244H22.4588V7.18592C24.4178 7.16361 25.998 5.56516 25.998 3.59448V3.59347C25.998 1.62279 24.4178 0.0243454 22.4588 0.00203705V0.00101471H22.4487C22.4386 0.00101471 22.4285 0 22.4184 0C22.4072 0 22.3982 0.00101471 22.387 0.00101471H15.3005V0.00203705C15.2864 0.00203705 15.2733 0.00101471 15.2601 0.00101471C11.3057 0.00101471 8.10088 3.2182 8.09987 7.18694V19.0059V24.498V33.895V37.4682V49.3673L0 57.4995L8.09987 65.6297V71.8723V82.176V92.9169V97.0296V107.813H8.10189C8.1029 111.782 11.3077 114.999 15.2621 114.999C15.2753 114.999 15.2884 114.998 15.3015 114.998L22.3891 114.999C22.3992 114.999 22.4093 115 22.4194 115C22.4305 115 22.4396 114.999 22.4507 114.999H22.4608C24.4188 114.978 26 113.377 26 111.407C26 109.436 24.4188 107.835 22.4608 107.814Z" fill="#191A42"/>
<path d="M115.539 107.814V107.812H115.574H115.581H115.587H119.118V107.81C119.129 107.81 119.14 107.811 119.151 107.812H119.174C121.127 107.805 122.71 106.228 122.738 104.272L122.739 97.0296V71.8723V62.6549L127.874 57.4995L122.739 52.3431V37.4682V19.0059V10.7104C122.701 8.76307 121.123 7.19505 119.176 7.18795H119.153C119.142 7.18896 119.131 7.18998 119.119 7.19099V7.18795H115.589H115.582H115.576H115.541V7.18592C113.582 7.16361 112.002 5.56516 112.002 3.59448V3.59347C112.002 1.62279 113.582 0.0243454 115.541 0.00203705V0.00101471H115.551C115.561 0.00101471 115.572 0 115.582 0C115.593 0 115.602 0.00101471 115.613 0.00101471H122.699V0.00203705C122.714 0.00203705 122.727 0.00101471 122.74 0.00101471C126.694 0.00101471 129.899 3.2182 129.9 7.18694V19.0059V24.498V33.895V37.4682V49.3673L138 57.4995L129.9 65.6297V71.8723V82.176V92.9169V97.0296V107.813H129.898C129.897 111.782 126.692 114.999 122.738 114.999C122.725 114.999 122.712 114.998 122.698 114.998L115.611 114.999C115.601 114.999 115.591 115 115.581 115C115.57 115 115.56 114.999 115.549 114.999H115.539C113.581 114.978 112 113.377 112 111.407C112 109.436 113.581 107.835 115.539 107.814Z" fill="#191A42"/>
<g clip-path="url(#clip0_1_951)">
<path d="M38.1388 58.2001C37.8691 58.2007 37.6064 58.1141 37.39 57.9532C37.1736 57.7922 37.015 57.5656 36.9379 57.3072C36.8609 57.0488 36.8695 56.7723 36.9624 56.5192C37.0554 56.266 37.2278 56.0497 37.4538 55.9026L46.3038 50.1288C46.4412 50.039 46.595 49.9772 46.7564 49.9468C46.9178 49.9165 47.0836 49.9182 47.2443 49.9519C47.405 49.9857 47.5575 50.0507 47.693 50.1434C47.8286 50.236 47.9446 50.3545 48.0344 50.4919C48.1242 50.6294 48.186 50.7832 48.2163 50.9446C48.2467 51.106 48.245 51.2717 48.2112 51.4324C48.1775 51.5931 48.1125 51.7456 48.0198 51.8812C47.9272 52.0168 47.8087 52.1328 47.6713 52.2226L38.8213 58.0001C38.6182 58.132 38.3809 58.2015 38.1388 58.2001ZM88.1488 58.1376C87.8982 58.1375 87.6535 58.0622 87.4463 57.9213L79.5713 52.5588C79.4355 52.4665 79.3193 52.3483 79.2292 52.211C79.1391 52.0738 79.0769 51.9201 79.0462 51.7588C79.0155 51.5976 79.0169 51.4318 79.0502 51.271C79.0836 51.1103 79.1483 50.9577 79.2406 50.8219C79.333 50.6862 79.4511 50.5699 79.5884 50.4798C79.7256 50.3898 79.8793 50.3276 80.0406 50.2969C80.2019 50.2662 80.3676 50.2676 80.5284 50.3009C80.6891 50.3343 80.8417 50.399 80.9775 50.4913L88.8525 55.8538C89.0736 56.0041 89.2407 56.2214 89.3293 56.4737C89.4178 56.7261 89.4231 57.0001 89.3443 57.2557C89.2656 57.5112 89.1069 57.7348 88.8918 57.8935C88.6766 58.0522 88.4161 58.1378 88.1488 58.1376Z" fill="#2D9DAF"/>
<path d="M70.7325 58.2375C70.5724 58.121 70.3868 58.0444 70.1911 58.0142C69.9954 57.984 69.7953 58.001 69.6075 58.0637C65.8013 59.3062 61.6987 59.3062 57.8925 58.0637C57.7047 58.0016 57.5049 57.985 57.3094 58.0151C57.114 58.0453 56.9285 58.1214 56.7681 58.2372C56.6078 58.353 56.4772 58.5051 56.3872 58.6812C56.2971 58.8573 56.2501 59.0522 56.25 59.25V67.75C56.25 68.0815 56.3817 68.3994 56.6161 68.6339C56.8505 68.8683 57.1685 69 57.5 69H70C70.3315 69 70.6495 68.8683 70.8839 68.6339C71.1183 68.3994 71.25 68.0815 71.25 67.75V59.25C71.2499 59.0523 71.203 58.8575 71.113 58.6815C71.0231 58.5055 70.8927 58.3533 70.7325 58.2375Z" fill="#BDE0E6"/>
<path d="M63.75 61.5C75.486 61.5 85 51.986 85 40.25C85 28.5139 75.486 19 63.75 19C52.0139 19 42.5 28.5139 42.5 40.25C42.5 51.986 52.0139 61.5 63.75 61.5Z" fill="white"/>
<path d="M63.75 56.5C72.7246 56.5 80 49.2246 80 40.25C80 31.2754 72.7246 24 63.75 24C54.7754 24 47.5 31.2754 47.5 40.25C47.5 49.2246 54.7754 56.5 63.75 56.5Z" fill="#BDE0E6"/>
<path d="M73.75 66.5H53.75C53.4185 66.5 53.1005 66.6317 52.8661 66.8661C52.6317 67.1005 52.5 67.4185 52.5 67.75V87.75C52.5 90.7337 53.6853 93.5952 55.795 95.705C57.9048 97.8147 60.7663 99 63.75 99C66.7337 99 69.5952 97.8147 71.705 95.705C73.8147 93.5952 75 90.7337 75 87.75V67.75C75 67.4185 74.8683 67.1005 74.6339 66.8661C74.3995 66.6317 74.0815 66.5 73.75 66.5Z" fill="white"/>
<path d="M59.2 44.7125L50.8625 50.1375C50.3525 49.4798 49.8968 48.7817 49.5 48.05L57.825 42.6125C57.9629 42.5222 58.1172 42.46 58.2791 42.4294C58.4411 42.3987 58.6075 42.4003 58.7688 42.4339C58.9302 42.4676 59.0833 42.5327 59.2195 42.6255C59.3557 42.7184 59.4722 42.8371 59.5625 42.975C59.6528 43.1129 59.715 43.2672 59.7457 43.4292C59.7763 43.5911 59.7748 43.7575 59.7411 43.9188C59.7074 44.0802 59.6423 44.2333 59.5495 44.3695C59.4566 44.5057 59.3379 44.6222 59.2 44.7125ZM93.9 57.6C93.6528 57.6 93.4112 57.5266 93.2057 57.3893C93.0002 57.2519 92.84 57.0567 92.7454 56.8283C92.6508 56.6 92.6261 56.3487 92.6743 56.1062C92.7225 55.8638 92.8415 55.6411 93.0162 55.4663L101.466 47.0163C101.702 46.7886 102.018 46.6626 102.345 46.6654C102.673 46.6683 102.987 46.7997 103.219 47.0315C103.45 47.2633 103.582 47.5768 103.585 47.9045C103.587 48.2323 103.461 48.548 103.234 48.7838L94.7837 57.2338C94.5494 57.4682 94.2315 57.6 93.9 57.6ZM77.8375 48.3375C77.4232 49.0621 76.9508 49.7519 76.425 50.4L68.2125 44.8C68.0761 44.7082 67.9591 44.5904 67.8683 44.4534C67.7775 44.3163 67.7146 44.1627 67.6833 44.0013C67.6519 43.8399 67.6527 43.6739 67.6856 43.5128C67.7185 43.3517 67.7829 43.1987 67.875 43.0625C68.0642 42.7914 68.3523 42.6055 68.6773 42.5447C69.0022 42.4839 69.3381 42.5532 69.6125 42.7375L77.8375 48.3375Z" fill="#2D9DAF"/>
<path d="M63.75 47.75C67.8921 47.75 71.25 44.3921 71.25 40.25C71.25 36.1079 67.8921 32.75 63.75 32.75C59.6079 32.75 56.25 36.1079 56.25 40.25C56.25 44.3921 59.6079 47.75 63.75 47.75Z" fill="#48C3D7"/>
<path d="M35 64C37.7614 64 40 61.7614 40 59C40 56.2386 37.7614 54 35 54C32.2386 54 30 56.2386 30 59C30 61.7614 32.2386 64 35 64Z" fill="#48C3D7"/>
<path d="M91.25 64C94.0114 64 96.25 61.7614 96.25 59C96.25 56.2386 94.0114 54 91.25 54C88.4886 54 86.25 56.2386 86.25 59C86.25 61.7614 88.4886 64 91.25 64Z" fill="#48C3D7"/>
<path d="M105 50.25C107.761 50.25 110 48.0114 110 45.25C110 42.4886 107.761 40.25 105 40.25C102.239 40.25 100 42.4886 100 45.25C100 48.0114 102.239 50.25 105 50.25Z" fill="#48C3D7"/>
<path d="M63.75 95.25C61.7615 95.248 59.855 94.4572 58.4489 93.0511C57.0428 91.645 56.252 89.7385 56.25 87.75C56.25 87.4185 56.3817 87.1005 56.6161 86.8661C56.8505 86.6317 57.1685 86.5 57.5 86.5C57.8315 86.5 58.1495 86.6317 58.3839 86.8661C58.6183 87.1005 58.75 87.4185 58.75 87.75C58.75 89.0761 59.2768 90.3479 60.2145 91.2855C61.1521 92.2232 62.4239 92.75 63.75 92.75C64.0815 92.75 64.3995 92.8817 64.6339 93.1161C64.8683 93.3505 65 93.6685 65 94C65 94.3315 64.8683 94.6495 64.6339 94.8839C64.3995 95.1183 64.0815 95.25 63.75 95.25Z" fill="#BDE0E6"/>
</g>
<defs>
<clipPath id="clip0_1_951">
<rect width="80" height="80" fill="white" transform="translate(30 19)"/>
</clipPath>
</defs>
</svg>
